<svg width="310" height="134" viewBox="0 0 310 134" fill="none" xmlns="http://www.w3.org/2000/svg">
<path d="M2.48427 127.194L3.91273 123.157H11.614L13.0424 127.194H15.6199L9.09864 109.867H6.52121L0 127.194H2.48427ZM10.9308 121.232H4.5959L7.76335 112.32L10.9308 121.232Z" fill="#300D4F"/>
<path d="M28.8024 127.194V114.99L32.6841 122.567H34.8578L38.7395 114.99V127.194H42.4969V109.867H37.9321L33.8951 117.723L29.8893 109.867H25.0449V127.194H28.8024ZM52.7445 127.505C53.1689 127.505 53.6115 127.474 54.0721 127.412C54.5327 127.35 54.9907 127.241 55.4462 127.086C55.9016 126.93 56.3416 126.731 56.766 126.488C57.1904 126.245 57.5734 125.937 57.9149 125.564C58.2565 125.191 58.5489 124.757 58.7922 124.26C59.0354 123.763 59.2037 123.189 59.2968 122.536H55.5704C55.4565 123.189 55.1667 123.698 54.7009 124.066C54.2351 124.433 53.614 124.617 52.8377 124.617C51.8647 124.617 51.1168 124.306 50.5941 123.685C50.0714 123.064 49.7945 122.112 49.7634 120.828H59.3589V120.27C59.3589 118.862 59.1571 117.692 58.7534 116.76C58.3497 115.829 57.827 115.091 57.1852 114.548C56.5434 114.005 55.8266 113.622 55.0347 113.399C54.2429 113.176 53.4588 113.065 52.6824 113.065C51.8854 113.065 51.091 113.179 50.2991 113.407C49.5072 113.634 48.793 114.025 48.1564 114.579C47.5198 115.133 47.0023 115.873 46.6037 116.799C46.2052 117.726 46.006 118.882 46.006 120.27C46.006 121.636 46.2 122.782 46.5882 123.709C46.9764 124.635 47.4888 125.378 48.1254 125.937C48.762 126.496 49.4839 126.897 50.2913 127.14C51.0987 127.383 51.9165 127.505 52.7445 127.505ZM55.5394 118.748H49.8255C49.9394 117.775 50.237 117.05 50.7183 116.574C51.1996 116.098 51.8544 115.86 52.6824 115.86C53.5105 115.86 54.1652 116.098 54.6466 116.574C55.1279 117.05 55.4255 117.775 55.5394 118.748ZM68.0228 127.505C68.7681 127.505 69.503 127.43 70.2276 127.28C70.9522 127.13 71.5991 126.881 72.1684 126.535C72.7378 126.188 73.1984 125.735 73.5503 125.176C73.9023 124.617 74.0782 123.923 74.0782 123.095C74.0782 122.433 73.9618 121.869 73.7289 121.403C73.496 120.937 73.1906 120.544 72.8128 120.223C72.435 119.902 72.0002 119.643 71.5086 119.447C71.0169 119.25 70.5174 119.079 70.0102 118.934C69.4099 118.769 68.8561 118.631 68.3489 118.523C67.8417 118.414 67.4017 118.298 67.0291 118.173C66.6565 118.049 66.3666 117.894 66.1596 117.708C65.9526 117.521 65.8491 117.268 65.8491 116.947C65.8491 116.522 66.0199 116.199 66.3615 115.976C66.703 115.754 67.1223 115.643 67.6191 115.643C68.2402 115.643 68.7448 115.806 69.133 116.132C69.5211 116.458 69.7308 116.885 69.7618 117.413H73.5503C73.4986 116.678 73.3122 116.036 72.9914 115.487C72.6705 114.939 72.2513 114.486 71.7337 114.129C71.2161 113.772 70.6132 113.505 69.9248 113.329C69.2365 113.153 68.499 113.065 67.7123 113.065C67.0084 113.065 66.3149 113.138 65.6317 113.283C64.9485 113.427 64.3404 113.663 63.8073 113.989C63.2742 114.315 62.8447 114.745 62.5186 115.278C62.1925 115.811 62.0295 116.46 62.0295 117.226C62.0295 117.899 62.1563 118.466 62.4099 118.926C62.6635 119.387 62.987 119.77 63.3803 120.075C63.7737 120.381 64.2136 120.627 64.7001 120.813C65.1866 120.999 65.6628 121.16 66.1286 121.294C66.7703 121.47 67.3474 121.618 67.8598 121.737C68.3722 121.856 68.8069 121.983 69.164 122.117C69.5211 122.252 69.7929 122.415 69.9792 122.606C70.1655 122.798 70.2587 123.054 70.2587 123.375C70.2587 123.872 70.0568 124.255 69.6531 124.524C69.2494 124.793 68.7267 124.928 68.0849 124.928C67.6812 124.928 67.3112 124.873 66.9748 124.765C66.6384 124.656 66.3485 124.503 66.1053 124.306C65.862 124.11 65.6679 123.874 65.523 123.6C65.3781 123.326 65.3005 123.023 65.2901 122.692H61.5016C61.5637 123.499 61.7707 124.203 62.1227 124.803C62.4746 125.404 62.9378 125.906 63.5123 126.309C64.0868 126.713 64.7596 127.013 65.5308 127.21C66.3019 127.407 67.1326 127.505 68.0228 127.505ZM82.6955 127.505C83.4408 127.505 84.1758 127.43 84.9003 127.28C85.6249 127.13 86.2719 126.881 86.8412 126.535C87.4105 126.188 87.8711 125.735 88.223 125.176C88.575 124.617 88.751 123.923 88.751 123.095C88.751 122.433 88.6345 121.869 88.4016 121.403C88.1687 120.937 87.8633 120.544 87.4855 120.223C87.1077 119.902 86.673 119.643 86.1813 119.447C85.6896 119.25 85.1902 119.079 84.683 118.934C84.0826 118.769 83.5288 118.631 83.0216 118.523C82.5144 118.414 82.0745 118.298 81.7018 118.173C81.3292 118.049 81.0394 117.894 80.8323 117.708C80.6253 117.521 80.5218 117.268 80.5218 116.947C80.5218 116.522 80.6926 116.199 81.0342 115.976C81.3758 115.754 81.795 115.643 82.2919 115.643C82.9129 115.643 83.4175 115.806 83.8057 116.132C84.1939 116.458 84.4035 116.885 84.4345 117.413H88.223C88.1713 116.678 87.985 116.036 87.6641 115.487C87.3432 114.939 86.924 114.486 86.4064 114.129C85.8889 113.772 85.2859 113.505 84.5976 113.329C83.9092 113.153 83.1717 113.065 82.385 113.065C81.6811 113.065 80.9876 113.138 80.3044 113.283C79.6213 113.427 79.0131 113.663 78.48 113.989C77.947 114.315 77.5174 114.745 77.1913 115.278C76.8653 115.811 76.7022 116.46 76.7022 117.226C76.7022 117.899 76.829 118.466 77.0826 118.926C77.3362 119.387 77.6597 119.77 78.0531 120.075C78.4464 120.381 78.8863 120.627 79.3728 120.813C79.8593 120.999 80.3355 121.16 80.8013 121.294C81.4431 121.47 82.0201 121.618 82.5325 121.737C83.0449 121.856 83.4796 121.983 83.8368 122.117C84.1939 122.252 84.4656 122.415 84.6519 122.606C84.8382 122.798 84.9314 123.054 84.9314 123.375C84.9314 123.872 84.7295 124.255 84.3259 124.524C83.9222 124.793 83.3994 124.928 82.7577 124.928C82.354 124.928 81.9839 124.873 81.6475 124.765C81.3111 124.656 81.0213 124.503 80.778 124.306C80.5347 124.11 80.3407 123.874 80.1957 123.6C80.0508 123.326 79.9732 123.023 79.9628 122.692H76.1743C76.2364 123.499 76.4435 124.203 76.7954 124.803C77.1473 125.404 77.6106 125.906 78.185 126.309C78.7595 126.713 79.4324 127.013 80.2035 127.21C80.9747 127.407 81.8053 127.505 82.6955 127.505ZM102.725 127.505C103.243 127.505 103.719 127.445 104.153 127.326C104.588 127.207 104.93 127.07 105.178 126.915V124.306C105.033 124.389 104.862 124.457 104.666 124.508C104.469 124.56 104.278 124.586 104.091 124.586C103.812 124.586 103.618 124.519 103.509 124.384C103.4 124.25 103.346 124.048 103.346 123.779V118.437C103.346 117.609 103.253 116.864 103.067 116.202C102.88 115.539 102.567 114.975 102.127 114.509C101.687 114.043 101.105 113.686 100.38 113.438C99.6559 113.189 98.7605 113.065 97.6943 113.065C96.9801 113.065 96.2581 113.135 95.5284 113.275C94.7986 113.414 94.1361 113.673 93.5409 114.051C92.9458 114.429 92.4541 114.952 92.0659 115.619C91.6777 116.287 91.4733 117.143 91.4526 118.189H95.0548C95.0651 117.464 95.2359 116.905 95.5672 116.512C95.8984 116.119 96.4833 115.922 97.3217 115.922C97.7978 115.922 98.1808 115.987 98.4707 116.116C98.7605 116.246 98.9831 116.434 99.1383 116.683C99.2936 116.931 99.3971 117.231 99.4489 117.583C99.5006 117.935 99.5265 118.334 99.5265 118.779V119.089L96.5454 119.338C96.1417 119.369 95.7224 119.416 95.2877 119.478C94.853 119.54 94.426 119.636 94.0067 119.765C93.5875 119.894 93.189 120.06 92.8112 120.262C92.4334 120.464 92.1021 120.717 91.8175 121.023C91.5328 121.328 91.3077 121.695 91.1421 122.125C90.9764 122.555 90.8936 123.054 90.8936 123.623C90.8936 124.306 91.0101 124.894 91.243 125.386C91.4759 125.877 91.7942 126.278 92.1979 126.589C92.6016 126.899 93.0726 127.13 93.6108 127.28C94.1491 127.43 94.7236 127.505 95.3343 127.505C95.9346 127.505 96.4936 127.44 97.0112 127.311C97.5287 127.181 97.9919 127.013 98.4008 126.806C98.8097 126.599 99.1668 126.366 99.4721 126.108C99.7775 125.849 100.023 125.59 100.21 125.331V125.486C100.21 125.725 100.243 125.963 100.311 126.201C100.378 126.439 100.505 126.654 100.691 126.845C100.877 127.037 101.133 127.194 101.46 127.319C101.786 127.443 102.207 127.505 102.725 127.505ZM96.5764 124.865C95.9243 124.865 95.4507 124.733 95.1557 124.469C94.8607 124.206 94.7132 123.83 94.7132 123.344C94.7132 122.733 94.9332 122.283 95.3731 121.993C95.813 121.703 96.4625 121.512 97.3217 121.418L99.5265 121.17V123.748C99.1228 124.079 98.6829 124.348 98.2067 124.555C97.7306 124.762 97.1871 124.865 96.5764 124.865ZM113.252 133.654C114.422 133.654 115.475 133.553 116.412 133.351C117.349 133.149 118.143 132.846 118.795 132.442C119.447 132.039 119.949 131.539 120.301 130.944C120.653 130.349 120.829 129.658 120.829 128.871C120.829 128.167 120.689 127.57 120.41 127.078C120.13 126.586 119.753 126.185 119.276 125.875C118.8 125.564 118.244 125.339 117.607 125.199C116.971 125.06 116.295 124.99 115.581 124.99H112.041C111.337 124.99 110.814 124.891 110.473 124.695C110.131 124.498 109.96 124.234 109.96 123.903C109.96 123.654 110.043 123.44 110.209 123.258C110.374 123.077 110.561 122.93 110.768 122.816C111.172 122.94 111.583 123.033 112.002 123.095C112.421 123.157 112.828 123.189 113.221 123.189C113.884 123.189 114.572 123.095 115.286 122.909C116 122.723 116.655 122.428 117.25 122.024C117.845 121.62 118.337 121.098 118.725 120.456C119.113 119.814 119.307 119.038 119.307 118.127C119.307 117.878 119.289 117.646 119.253 117.428C119.217 117.211 119.173 116.999 119.121 116.792C119.421 116.647 119.771 116.548 120.169 116.497C120.568 116.445 121.046 116.419 121.605 116.419V113.065C120.674 113.065 119.91 113.228 119.315 113.554C118.72 113.88 118.262 114.297 117.941 114.804C117.631 114.504 117.284 114.243 116.901 114.02C116.518 113.797 116.119 113.616 115.705 113.477C115.291 113.337 114.869 113.233 114.44 113.166C114.01 113.099 113.594 113.065 113.19 113.065C112.528 113.065 111.839 113.158 111.125 113.345C110.411 113.531 109.756 113.826 109.161 114.23C108.566 114.633 108.074 115.156 107.686 115.798C107.298 116.44 107.104 117.216 107.104 118.127C107.104 119.027 107.298 119.799 107.686 120.44C108.074 121.082 108.563 121.605 109.153 122.009C108.853 122.143 108.568 122.296 108.299 122.467C108.03 122.637 107.794 122.834 107.593 123.057C107.391 123.279 107.233 123.528 107.119 123.802C107.005 124.076 106.948 124.379 106.948 124.71C106.948 125.01 106.995 125.29 107.088 125.549C107.181 125.807 107.308 126.043 107.468 126.255C107.629 126.467 107.818 126.651 108.035 126.806C108.252 126.962 108.48 127.091 108.718 127.194C108.418 127.308 108.128 127.445 107.849 127.606C107.569 127.766 107.321 127.958 107.104 128.18C106.886 128.403 106.713 128.662 106.583 128.957C106.454 129.252 106.389 129.586 106.389 129.958C106.389 130.507 106.539 131.009 106.84 131.464C107.14 131.92 107.58 132.31 108.159 132.637C108.739 132.963 109.456 133.214 110.31 133.39C111.164 133.566 112.145 133.654 113.252 133.654ZM113.221 120.487C112.424 120.487 111.806 120.277 111.366 119.858C110.926 119.439 110.706 118.862 110.706 118.127C110.706 117.392 110.926 116.815 111.366 116.396C111.806 115.976 112.414 115.767 113.19 115.767C113.987 115.767 114.605 115.976 115.045 116.396C115.485 116.815 115.705 117.392 115.705 118.127C115.705 118.862 115.485 119.439 115.045 119.858C114.605 120.277 113.997 120.487 113.221 120.487ZM113.376 131.231C112.041 131.231 111.086 131.068 110.512 130.742C109.937 130.416 109.65 129.979 109.65 129.43C109.65 129.089 109.735 128.804 109.906 128.576C110.077 128.349 110.281 128.178 110.519 128.064H114.898C115.705 128.064 116.29 128.167 116.652 128.374C117.015 128.581 117.196 128.913 117.196 129.368C117.196 130.01 116.865 130.481 116.202 130.781C115.54 131.081 114.598 131.231 113.376 131.231ZM129.493 127.505C129.917 127.505 130.36 127.474 130.821 127.412C131.281 127.35 131.739 127.241 132.195 127.086C132.65 126.93 133.09 126.731 133.514 126.488C133.939 126.245 134.322 125.937 134.663 125.564C135.005 125.191 135.297 124.757 135.541 124.26C135.784 123.763 135.952 123.189 136.045 122.536H132.319C132.205 123.189 131.915 123.698 131.449 124.066C130.984 124.433 130.363 124.617 129.586 124.617C128.613 124.617 127.865 124.306 127.343 123.685C126.82 123.064 126.543 122.112 126.512 120.828H136.107V120.27C136.107 118.862 135.906 117.692 135.502 116.76C135.098 115.829 134.575 115.091 133.934 114.548C133.292 114.005 132.575 113.622 131.783 113.399C130.991 113.176 130.207 113.065 129.431 113.065C128.634 113.065 127.839 113.179 127.048 113.407C126.256 113.634 125.541 114.025 124.905 114.579C124.268 115.133 123.751 115.873 123.352 116.799C122.954 117.726 122.754 118.882 122.754 120.27C122.754 121.636 122.949 122.782 123.337 123.709C123.725 124.635 124.237 125.378 124.874 125.937C125.51 126.496 126.232 126.897 127.04 127.14C127.847 127.383 128.665 127.505 129.493 127.505ZM132.288 118.748H126.574C126.688 117.775 126.985 117.05 127.467 116.574C127.948 116.098 128.603 115.86 129.431 115.86C130.259 115.86 130.914 116.098 131.395 116.574C131.876 117.05 132.174 117.775 132.288 118.748ZM147.193 127.194C149.398 127.194 151.067 126.757 152.201 125.882C153.334 125.008 153.901 123.768 153.901 122.164C153.901 121.087 153.645 120.236 153.132 119.61C152.62 118.983 151.903 118.52 150.982 118.22C151.686 117.909 152.229 117.475 152.612 116.916C152.995 116.357 153.187 115.622 153.187 114.711C153.187 113.169 152.638 111.976 151.541 111.132C150.444 110.288 148.839 109.867 146.728 109.867H139.523V127.194H147.193ZM146.324 116.885H143.467V112.972H146.324C146.883 112.972 147.344 113.016 147.706 113.104C148.068 113.192 148.353 113.321 148.56 113.492C148.767 113.663 148.912 113.87 148.995 114.113C149.077 114.356 149.119 114.628 149.119 114.928C149.119 115.229 149.077 115.498 148.995 115.736C148.912 115.974 148.767 116.178 148.56 116.349C148.353 116.52 148.068 116.652 147.706 116.745C147.344 116.838 146.883 116.885 146.324 116.885ZM146.728 124.089H143.467V119.804H146.728C147.349 119.804 147.859 119.855 148.257 119.959C148.656 120.063 148.971 120.207 149.204 120.394C149.437 120.58 149.6 120.805 149.693 121.069C149.786 121.333 149.833 121.626 149.833 121.946C149.833 122.278 149.786 122.575 149.693 122.839C149.6 123.103 149.437 123.328 149.204 123.515C148.971 123.701 148.656 123.843 148.257 123.942C147.859 124.04 147.349 124.089 146.728 124.089ZM161.199 110.053V106.637H157.162V110.053H161.199ZM161.105 127.194V113.376H157.255V127.194H161.105ZM168.838 127.194V117.382C169.117 117.019 169.495 116.742 169.971 116.551C170.447 116.359 171.022 116.264 171.695 116.264C172.098 116.264 172.463 116.3 172.789 116.372C173.115 116.445 173.413 116.543 173.682 116.667V113.376C173.589 113.324 173.413 113.259 173.154 113.182C172.895 113.104 172.523 113.065 172.036 113.065C171.156 113.065 170.421 113.262 169.831 113.655C169.241 114.048 168.765 114.587 168.403 115.27V113.376H164.987V127.194H168.838ZM180.964 127.505C181.513 127.505 182.007 127.445 182.447 127.326C182.887 127.207 183.277 127.055 183.619 126.868C183.961 126.682 184.25 126.472 184.489 126.24C184.727 126.007 184.918 125.776 185.063 125.549V127.194H188.479V106.637H184.628V114.68C184.514 114.525 184.354 114.354 184.147 114.168C183.94 113.981 183.684 113.805 183.378 113.64C183.073 113.474 182.721 113.337 182.323 113.228C181.924 113.119 181.471 113.065 180.964 113.065C180.229 113.065 179.51 113.197 178.806 113.461C178.102 113.725 177.473 114.147 176.919 114.726C176.366 115.306 175.918 116.057 175.576 116.978C175.235 117.899 175.064 119.017 175.064 120.332C175.064 121.636 175.232 122.743 175.568 123.654C175.905 124.565 176.35 125.305 176.904 125.875C177.458 126.444 178.089 126.858 178.798 127.117C179.507 127.376 180.229 127.505 180.964 127.505ZM182.113 124.338C181.068 124.338 180.283 123.988 179.761 123.289C179.238 122.591 178.977 121.584 178.977 120.27C178.977 118.955 179.238 117.953 179.761 117.265C180.283 116.577 181.068 116.233 182.113 116.233C182.631 116.233 183.104 116.318 183.534 116.489C183.963 116.66 184.328 116.885 184.628 117.164V123.406C184.328 123.685 183.963 123.911 183.534 124.081C183.104 124.252 182.631 124.338 182.113 124.338Z" fill="#300D4F"/>
<path d="M204.346 127.505C205.102 127.505 205.803 127.399 206.45 127.187C207.097 126.975 207.661 126.661 208.143 126.247C208.624 125.833 209.009 125.318 209.299 124.702C209.589 124.087 209.76 123.375 209.812 122.568H207.514C207.493 122.961 207.415 123.336 207.281 123.693C207.146 124.05 206.947 124.361 206.683 124.625C206.419 124.889 206.093 125.098 205.705 125.254C205.317 125.409 204.853 125.487 204.315 125.487C203.052 125.487 202.095 125.065 201.443 124.221C200.791 123.378 200.465 122.112 200.465 120.425C200.465 118.738 200.791 117.477 201.443 116.644C202.095 115.811 203.052 115.394 204.315 115.394C204.853 115.394 205.317 115.469 205.705 115.619C206.093 115.769 206.419 115.976 206.683 116.24C206.947 116.504 207.146 116.812 207.281 117.164C207.415 117.516 207.493 117.889 207.514 118.282H209.812C209.76 117.485 209.589 116.781 209.299 116.171C209.009 115.56 208.624 115.047 208.143 114.633C207.661 114.219 207.097 113.906 206.45 113.694C205.803 113.482 205.102 113.376 204.346 113.376C203.88 113.376 203.402 113.42 202.91 113.508C202.418 113.596 201.942 113.746 201.482 113.958C201.021 114.17 200.586 114.45 200.177 114.796C199.768 115.143 199.411 115.578 199.106 116.101C198.801 116.623 198.557 117.242 198.376 117.956C198.195 118.67 198.104 119.493 198.104 120.425C198.104 121.367 198.195 122.195 198.376 122.909C198.557 123.623 198.801 124.244 199.106 124.772C199.411 125.3 199.768 125.738 200.177 126.084C200.586 126.431 201.021 126.711 201.482 126.923C201.942 127.135 202.418 127.285 202.91 127.373C203.402 127.461 203.88 127.505 204.346 127.505ZM219.034 127.505C219.759 127.505 220.494 127.396 221.239 127.179C221.985 126.962 222.655 126.581 223.25 126.038C223.845 125.494 224.332 124.77 224.709 123.864C225.087 122.958 225.276 121.812 225.276 120.425C225.276 119.048 225.087 117.907 224.709 117.001C224.332 116.095 223.845 115.373 223.25 114.835C222.655 114.297 221.985 113.919 221.239 113.702C220.494 113.484 219.759 113.376 219.034 113.376C218.548 113.376 218.056 113.422 217.559 113.515C217.063 113.609 216.584 113.764 216.123 113.981C215.663 114.199 215.228 114.486 214.819 114.843C214.41 115.2 214.056 115.637 213.755 116.155C213.455 116.673 213.22 117.286 213.049 117.995C212.878 118.704 212.793 119.514 212.793 120.425C212.793 121.346 212.878 122.161 213.049 122.87C213.22 123.579 213.455 124.195 213.755 124.718C214.056 125.241 214.41 125.681 214.819 126.038C215.228 126.395 215.663 126.682 216.123 126.899C216.584 127.117 217.063 127.272 217.559 127.365C218.056 127.458 218.548 127.505 219.034 127.505ZM219.034 125.487C217.751 125.487 216.783 125.065 216.131 124.221C215.479 123.378 215.153 122.112 215.153 120.425C215.153 118.738 215.479 117.477 216.131 116.644C216.783 115.811 217.751 115.394 219.034 115.394C220.318 115.394 221.286 115.811 221.938 116.644C222.59 117.477 222.916 118.738 222.916 120.425C222.916 122.112 222.59 123.378 221.938 124.221C221.286 125.065 220.318 125.487 219.034 125.487ZM231.549 127.194V116.761C231.684 116.595 231.847 116.432 232.038 116.271C232.23 116.111 232.455 115.969 232.713 115.844C232.972 115.72 233.262 115.619 233.583 115.542C233.904 115.464 234.261 115.425 234.654 115.425C235.213 115.425 235.669 115.511 236.021 115.681C236.373 115.852 236.65 116.106 236.851 116.442C237.053 116.779 237.193 117.195 237.271 117.692C237.348 118.189 237.387 118.758 237.387 119.4V127.194H239.716V118.872C239.716 118.51 239.703 118.176 239.677 117.871C239.651 117.565 239.613 117.278 239.561 117.009C239.695 116.833 239.866 116.652 240.073 116.466C240.28 116.279 240.521 116.108 240.795 115.953C241.069 115.798 241.38 115.671 241.727 115.573C242.074 115.474 242.459 115.425 242.883 115.425C243.432 115.425 243.88 115.513 244.227 115.689C244.573 115.865 244.845 116.121 245.042 116.458C245.238 116.794 245.373 117.211 245.445 117.708C245.518 118.205 245.554 118.769 245.554 119.4V127.194H247.883V118.872C247.883 117.734 247.756 116.807 247.503 116.093C247.249 115.379 246.918 114.82 246.509 114.416C246.1 114.012 245.637 113.738 245.119 113.593C244.602 113.448 244.074 113.376 243.536 113.376C242.987 113.376 242.485 113.433 242.03 113.547C241.574 113.66 241.165 113.813 240.803 114.005C240.441 114.196 240.117 114.424 239.832 114.688C239.548 114.952 239.302 115.229 239.095 115.518C238.888 115.094 238.645 114.742 238.365 114.463C238.086 114.183 237.783 113.963 237.457 113.803C237.131 113.642 236.787 113.531 236.424 113.469C236.062 113.407 235.7 113.376 235.338 113.376C234.789 113.376 234.297 113.43 233.862 113.539C233.428 113.647 233.04 113.795 232.698 113.981C232.356 114.168 232.056 114.385 231.797 114.633C231.539 114.882 231.321 115.146 231.145 115.425V113.686H229.22V127.194H231.549ZM254.839 133.343V125.797C254.984 125.963 255.17 126.144 255.398 126.341C255.626 126.537 255.897 126.721 256.213 126.892C256.529 127.063 256.889 127.207 257.292 127.326C257.696 127.446 258.151 127.505 258.659 127.505C259.373 127.505 260.066 127.376 260.739 127.117C261.412 126.858 262.012 126.444 262.54 125.875C263.068 125.305 263.49 124.568 263.806 123.662C264.121 122.756 264.279 121.657 264.279 120.363C264.279 119.09 264.121 118.01 263.806 117.125C263.49 116.24 263.068 115.518 262.54 114.959C262.012 114.4 261.412 113.997 260.739 113.748C260.066 113.5 259.373 113.376 258.659 113.376C258.11 113.376 257.618 113.435 257.184 113.554C256.749 113.673 256.358 113.829 256.011 114.02C255.665 114.212 255.362 114.426 255.103 114.664C254.844 114.903 254.622 115.135 254.435 115.363V113.686H252.51V133.343H254.839ZM258.1 125.487C257.396 125.487 256.77 125.362 256.221 125.114C255.672 124.865 255.212 124.545 254.839 124.151V116.729C255.212 116.336 255.672 116.015 256.221 115.767C256.77 115.518 257.396 115.394 258.1 115.394C259.362 115.394 260.315 115.834 260.957 116.714C261.598 117.594 261.919 118.831 261.919 120.425C261.919 122.029 261.598 123.274 260.957 124.159C260.315 125.044 259.362 125.487 258.1 125.487ZM278.129 127.505C278.522 127.505 278.885 127.461 279.216 127.373C279.547 127.285 279.806 127.184 279.992 127.07V125.331C279.837 125.424 279.658 125.499 279.457 125.556C279.255 125.613 279.05 125.642 278.843 125.642C278.564 125.642 278.365 125.572 278.246 125.432C278.127 125.292 278.067 125.083 278.067 124.803V118.624C278.067 117.796 277.987 117.056 277.826 116.403C277.666 115.751 277.399 115.2 277.027 114.75C276.654 114.3 276.155 113.958 275.528 113.725C274.902 113.492 274.123 113.376 273.192 113.376C272.581 113.376 271.952 113.44 271.305 113.57C270.658 113.699 270.068 113.942 269.535 114.3C269.002 114.657 268.565 115.148 268.223 115.775C267.881 116.401 267.705 117.216 267.695 118.22H269.962C269.962 117.744 270.014 117.322 270.117 116.955C270.221 116.587 270.389 116.279 270.622 116.031C270.855 115.782 271.163 115.593 271.546 115.464C271.929 115.335 272.395 115.27 272.943 115.27C273.554 115.27 274.043 115.348 274.41 115.503C274.778 115.658 275.06 115.891 275.257 116.202C275.453 116.512 275.583 116.893 275.645 117.343C275.707 117.793 275.738 118.313 275.738 118.903V119.307L272.477 119.586C272.125 119.617 271.753 119.667 271.359 119.734C270.966 119.801 270.575 119.897 270.187 120.021C269.799 120.145 269.424 120.308 269.061 120.51C268.699 120.712 268.381 120.963 268.107 121.263C267.832 121.563 267.612 121.918 267.447 122.327C267.281 122.736 267.198 123.22 267.198 123.779C267.198 124.265 267.281 124.731 267.447 125.176C267.612 125.621 267.871 126.017 268.223 126.364C268.575 126.711 269.023 126.987 269.566 127.194C270.11 127.402 270.759 127.505 271.515 127.505C272.084 127.505 272.612 127.44 273.098 127.311C273.585 127.182 274.022 127.016 274.41 126.814C274.799 126.612 275.135 126.39 275.42 126.146C275.704 125.903 275.935 125.663 276.111 125.424V125.673C276.111 125.88 276.136 126.092 276.188 126.309C276.24 126.527 276.341 126.724 276.491 126.899C276.641 127.075 276.846 127.22 277.104 127.334C277.363 127.448 277.705 127.505 278.129 127.505ZM272.012 125.673C271.204 125.673 270.593 125.494 270.179 125.137C269.765 124.78 269.558 124.296 269.558 123.685C269.558 122.909 269.851 122.324 270.436 121.931C271.02 121.538 271.836 121.284 272.881 121.17L275.738 120.86V124.244C275.22 124.679 274.664 125.026 274.069 125.285C273.474 125.543 272.788 125.673 272.012 125.673ZM285.271 127.194V116.761C285.416 116.595 285.595 116.432 285.807 116.271C286.019 116.111 286.265 115.969 286.545 115.844C286.824 115.72 287.14 115.619 287.492 115.542C287.844 115.464 288.232 115.425 288.656 115.425C289.257 115.425 289.748 115.511 290.131 115.681C290.514 115.852 290.814 116.106 291.032 116.442C291.249 116.779 291.399 117.195 291.482 117.692C291.565 118.189 291.606 118.758 291.606 119.4V127.194H293.935V118.872C293.935 117.734 293.803 116.807 293.539 116.093C293.275 115.379 292.926 114.82 292.491 114.416C292.057 114.012 291.565 113.738 291.016 113.593C290.468 113.448 289.909 113.376 289.339 113.376C288.76 113.376 288.234 113.43 287.763 113.539C287.292 113.647 286.873 113.795 286.506 113.981C286.138 114.168 285.82 114.385 285.551 114.633C285.282 114.882 285.054 115.146 284.868 115.425V113.686H282.942V127.194H285.271ZM298.826 133.654C299.52 133.654 300.112 133.545 300.604 133.328C301.096 133.11 301.52 132.813 301.877 132.435C302.234 132.057 302.54 131.609 302.793 131.092C303.047 130.574 303.288 130.01 303.515 129.399L309.26 113.686H306.869L303.143 124.71L299.385 113.686H296.87L301.869 127.505L301.186 129.368C301.021 129.824 300.855 130.199 300.689 130.494C300.524 130.789 300.343 131.022 300.146 131.193C299.949 131.363 299.737 131.485 299.509 131.557C299.282 131.63 299.023 131.666 298.733 131.666C298.454 131.666 298.187 131.64 297.933 131.589C297.68 131.537 297.46 131.48 297.274 131.418V133.405C297.387 133.457 297.576 133.511 297.84 133.568C298.104 133.625 298.433 133.654 298.826 133.654Z" fill="#300D4F"/>
<path d="M26.3588 81.1096V60.7475C26.3582 60.7038 26.3819 60.6634 26.4202 60.6425L52.5658 45.5329C52.6042 45.512 52.6278 45.4716 52.6273 45.4279V39.6376C52.6278 39.5941 52.6048 39.5537 52.5671 39.5319C52.5295 39.5101 52.483 39.5104 52.4456 39.5326L26.5405 54.5014C26.5031 54.5236 26.4566 54.5239 26.4189 54.5021C26.3812 54.4803 26.3583 54.4399 26.3588 54.3963V48.6035C26.3588 48.56 26.3823 48.5198 26.4202 48.4985L52.5658 33.3889C52.603 33.3669 52.6262 33.3272 52.6273 33.2839V27.4936C52.6263 27.4508 52.603 27.4115 52.5659 27.3901C52.5288 27.3686 52.4832 27.3681 52.4456 27.3886L26.5405 42.3574C26.5031 42.3796 26.4566 42.3799 26.4189 42.3581C26.3812 42.3363 26.3583 42.2959 26.3588 42.2524V36.4621C26.3582 36.4184 26.3819 36.378 26.4202 36.3571L52.5658 21.2552C52.6038 21.2339 52.6273 21.1937 52.6273 21.1502V15.2805C52.6248 15.1948 52.5797 15.1159 52.507 15.0705L26.4791 0.0326532C26.4048 -0.0108844 26.3128 -0.0108844 26.2385 0.0326532L21.2873 2.89323C21.2493 2.91452 21.2258 2.95467 21.2258 2.99822C21.2258 3.04177 21.2493 3.08192 21.2873 3.10322L47.1924 18.0719C47.229 18.0942 47.2514 18.134 47.2514 18.1769C47.2514 18.2198 47.229 18.2596 47.1924 18.2819L42.2412 21.1425C42.1653 21.1835 42.0739 21.1835 41.9981 21.1425L15.9727 6.10465C15.8935 6.0589 15.796 6.0589 15.7168 6.10465L10.7809 8.96266C10.743 8.98395 10.7195 9.02411 10.7195 9.06766C10.7195 9.11121 10.743 9.15136 10.7809 9.17266L36.6809 24.1439C36.7189 24.1652 36.7424 24.2054 36.7424 24.2489C36.7424 24.2925 36.7189 24.3326 36.6809 24.3539L31.7322 27.2145C31.6531 27.2602 31.5555 27.2602 31.4764 27.2145L5.46379 12.1741C5.38462 12.1283 5.28709 12.1283 5.20792 12.1741L0.0903417 15.1397V66.0717C0.0897825 66.1154 0.113421 66.1558 0.151763 66.1767L5.16185 69.0731C5.19925 69.0954 5.24575 69.0956 5.28342 69.0739C5.32109 69.0521 5.34408 69.0117 5.34353 68.9681V18.3869C5.34298 18.3434 5.36597 18.303 5.40365 18.2812C5.44132 18.2594 5.4878 18.2597 5.5252 18.2819L10.5379 21.1784C10.5748 21.2003 10.5972 21.2403 10.5967 21.2834V72.1437C10.5967 72.1872 10.6202 72.2274 10.6581 72.2487L15.6682 75.1451C15.7064 75.1672 15.7534 75.1671 15.7915 75.1448C15.8296 75.1226 15.8528 75.0817 15.8524 75.0375V24.4589C15.8519 24.4154 15.8749 24.375 15.9126 24.3532C15.9502 24.3314 15.9967 24.3317 16.0341 24.3539L21.0442 27.2478C21.0822 27.2691 21.1056 27.3093 21.1056 27.3528V78.2157C21.1061 78.2584 21.1283 78.298 21.1645 78.3207L26.1899 81.2146C26.2263 81.2307 26.2683 81.2278 26.3021 81.2067C26.3359 81.1857 26.3571 81.1494 26.3588 81.1096Z" fill="#300D4F"/>
<path d="M79.2564 65.3608V16.129C79.2549 15.8807 79.3536 15.6425 79.5299 15.4689C79.7062 15.2953 79.945 15.2012 80.1915 15.2078H94.7288C103.947 15.2078 109.672 20.6095 109.672 29.658C109.672 38.7065 103.175 44.468 94.6471 44.468H86.8853C86.6207 44.4679 86.4042 44.6801 86.3973 44.9464V65.4406C86.3988 65.6884 86.3004 65.9262 86.1247 66.0997C85.949 66.2732 85.7109 66.3676 85.4648 66.3616H80.1864C79.6725 66.3068 79.2764 65.8806 79.2564 65.3608ZM94.7288 38.3825C99.601 38.3825 102.363 34.3006 102.363 29.658C102.363 24.8534 99.8463 21.2114 94.7288 21.2114H86.8853C86.6253 21.2195 86.4167 21.4306 86.4101 21.6924V37.8963C86.4157 38.1636 86.6325 38.3774 86.8981 38.3773L94.7288 38.3825Z" fill="#300D4F"/>
<path d="M140.08 15.2075H145.373C145.62 15.2009 145.859 15.2946 146.036 15.4674C146.213 15.6403 146.312 15.8775 146.31 16.1246V53.1578C146.31 61.5678 139.429 66.7075 131.367 66.7075C123.467 66.7075 116.585 61.5268 116.585 53.1578V16.1246C116.584 15.8779 116.683 15.6411 116.859 15.4684C117.035 15.2956 117.274 15.2016 117.521 15.2075H122.734C122.981 15.2009 123.22 15.2946 123.397 15.4674C123.574 15.6403 123.673 15.8775 123.671 16.1246V53.0272C123.671 57.6086 127.171 60.5178 131.326 60.5178C135.481 60.5178 139.063 57.6086 139.063 53.0272V16.1503C139.127 15.6305 139.557 15.2326 140.08 15.2075Z" fill="#300D4F"/>
<path d="M164.568 40.2746C159.505 36.8849 156.117 33.1006 156.117 27.3947C156.117 19.2213 163.016 14.5172 170.856 14.5172C178.243 14.5172 184.727 18.6167 185.104 28.9909C185.113 29.5222 184.696 29.964 184.164 29.9876H179.307C178.81 29.9912 178.397 29.6062 178.367 29.1113C178.04 23.4745 174.652 20.7766 170.404 20.7766C166.319 20.7766 163.258 23.1696 163.258 26.9975C163.258 30.3053 165.259 32.1013 170.486 35.7678L177.794 41.0305C182.857 44.6995 185.713 48.0098 185.713 53.2315C185.713 61.6867 178.731 66.7085 170.524 66.7085C162.767 66.7085 156.653 62.4835 155.991 52.117C155.972 51.8574 156.063 51.6019 156.242 51.4121C156.42 51.2224 156.67 51.1157 156.931 51.1177H161.87C162.362 51.129 162.766 51.5079 162.808 51.9966C163.258 57.7768 166.728 60.4517 170.812 60.4517C174.732 60.4517 178.405 58.3379 178.405 53.3929C178.405 50.3183 177.018 48.8092 173.011 46.1369L164.568 40.2746Z" fill="#300D4F"/>
<path d="M219.629 65.0622V43.657C219.624 43.3913 219.405 43.1788 219.137 43.1788H203.442C203.174 43.1788 202.956 43.3913 202.95 43.657V65.0622C202.951 65.3086 202.851 65.5447 202.673 65.7167C202.495 65.8887 202.255 65.9819 202.006 65.975H196.68C196.431 65.9819 196.191 65.8887 196.013 65.7167C195.835 65.5447 195.735 65.3086 195.736 65.0622V16.1232C195.734 15.8764 195.834 15.6396 196.012 15.467C196.19 15.2944 196.431 15.2009 196.68 15.2075H202.006C202.255 15.2009 202.496 15.2944 202.674 15.467C202.852 15.6396 202.951 15.8764 202.95 16.1232V36.5773C202.957 36.842 203.175 37.0529 203.442 37.0528H219.137C219.404 37.0529 219.622 36.842 219.629 36.5773V16.1232C219.628 15.8764 219.727 15.6396 219.905 15.467C220.083 15.2944 220.324 15.2009 220.573 15.2075H225.9C226.148 15.2009 226.389 15.2944 226.567 15.467C226.745 15.6396 226.845 15.8764 226.843 16.1232V65.1006C226.845 65.3473 226.745 65.5841 226.567 65.7567C226.389 65.9293 226.148 66.0228 225.9 66.0162H220.573C220.32 66.0139 220.078 65.9122 219.901 65.7332C219.724 65.5543 219.626 65.3129 219.629 65.0622Z" fill="#300D4F"/>
<path d="M240.324 65.1014V16.1239C240.322 15.8774 240.42 15.6408 240.596 15.4681C240.771 15.2955 241.009 15.2016 241.255 15.2075H267.041C267.287 15.2009 267.525 15.2945 267.701 15.4672C267.877 15.6399 267.976 15.8769 267.974 16.1239V20.3842C267.976 20.6312 267.877 20.8682 267.701 21.0409C267.525 21.2136 267.287 21.3072 267.041 21.3003H247.945C247.681 21.3016 247.465 21.5134 247.458 21.7788V36.7885C247.464 37.0545 247.68 37.2671 247.945 37.267H261.082C261.328 37.2608 261.565 37.3547 261.741 37.5273C261.916 37.7 262.015 37.9365 262.013 38.1831V42.4434C262.015 42.6899 261.916 42.9265 261.741 43.0992C261.565 43.2718 261.328 43.3657 261.082 43.3595H247.945C247.681 43.3608 247.465 43.5726 247.458 43.838V59.4465C247.465 59.7118 247.681 59.9237 247.945 59.925H267.041C267.548 59.9248 267.963 60.3318 267.974 60.841V65.1014C267.962 65.6096 267.547 66.015 267.041 66.0148H241.255C241.007 66.0286 240.766 65.9375 240.589 65.7638C240.412 65.5901 240.315 65.3497 240.324 65.1014Z" fill="#300D4F"/>
<path d="M301.328 65.3179L293.457 43.9212C293.389 43.7306 293.208 43.603 293.005 43.6026H285.706C285.439 43.6025 285.221 43.8145 285.214 44.0806V65.3179C285.214 65.5655 285.114 65.8029 284.937 65.9758C284.759 66.1487 284.518 66.2423 284.269 66.2354H278.939C278.691 66.2424 278.451 66.1486 278.273 65.9756C278.096 65.8027 277.996 65.5653 277.998 65.3179V16.1281C277.996 15.8805 278.095 15.6429 278.273 15.4695C278.45 15.2961 278.691 15.2018 278.939 15.2078H293.539C302.479 15.2078 308.629 20.8464 308.629 29.2062C308.629 34.7648 305.675 39.4034 300.262 42.1223C300.207 42.141 300.162 42.1822 300.139 42.2356C300.116 42.2889 300.117 42.3496 300.141 42.4024L309.039 65.0764C309.155 65.3699 309.116 65.7019 308.934 65.9604C308.753 66.2189 308.453 66.3695 308.136 66.3616H302.6C302.026 66.2492 301.548 65.857 301.328 65.3179ZM292.964 37.7638C297.27 37.7638 301.124 34.7648 301.124 29.4863C301.124 24.7654 298.049 21.2061 292.964 21.2061H285.706C285.46 21.2047 285.259 21.4007 285.255 21.6456V37.2421C285.261 37.5092 285.48 37.7227 285.748 37.7227L292.964 37.7638Z" fill="#300D4F"/>
</svg>
